<svg width="30" height="29" viewBox="0 0 30 29" fill="none" xmlns="http://www.w3.org/2000/svg">
<path fill-rule="evenodd" clip-rule="evenodd" d="M0 1C0 0.447715 0.447715 0 1 0H4C4.46306 0 4.86555 0.317911 4.97281 0.768379L5.74224 4H29C29.3047 4 29.5929 4.13896 29.7826 4.37745C29.9723 4.61594 30.0429 4.92792 29.9744 5.22486L26.9744 18.2249C26.8697 18.6786 26.4657 19 26 19H9.31367L9.78986 21H26C26.5523 21 27 21.4477 27 22C27 22.5523 26.5523 23 26 23H24H11H9C8.53694 23 8.13445 22.6821 8.02719 22.2316L7.14202 18.5139C7.08938 18.426 7.04962 18.3289 7.02561 18.2249L5.52639 11.7282L3.21014 2H1C0.447715 2 0 1.55228 0 1ZM11 23C9.34315 23 8 24.3431 8 26C8 27.6569 9.34315 29 11 29C12.6569 29 14 27.6569 14 26C14 24.3431 12.6569 23 11 23ZM24 23C22.3431 23 21 24.3431 21 26C21 27.6569 22.3431 29 24 29C25.6569 29 27 27.6569 27 26C27 24.3431 25.6569 23 24 23ZM8.83748 17H25.2045L27.7429 6H6.25705L7.47361 11.2717L8.83748 17ZM11 25C10.4477 25 10 25.4477 10 26C10 26.5523 10.4477 27 11 27C11.5523 27 12 26.5523 12 26C12 25.4477 11.5523 25 11 25ZM24 25C23.4477 25 23 25.4477 23 26C23 26.5523 23.4477 27 24 27C24.5523 27 25 26.5523 25 26C25 25.4477 24.5523 25 24 25Z" fill="white"/>
</svg>
