<svg width="26" height="26" viewBox="0 0 26 26" fill="none" xmlns="http://www.w3.org/2000/svg">
<path fill-rule="evenodd" clip-rule="evenodd" d="M2.33333 2C2.14924 2 2 2.14924 2 2.33333V9C2 9.18409 2.14924 9.33333 2.33333 9.33333H9C9.18409 9.33333 9.33333 9.18409 9.33333 9V2.33333C9.33333 2.14924 9.18409 2 9 2H2.33333ZM0 2.33333C0 1.04467 1.04467 0 2.33333 0H9C10.2887 0 11.3333 1.04467 11.3333 2.33333V9C11.3333 10.2887 10.2887 11.3333 9 11.3333H2.33333C1.04467 11.3333 0 10.2887 0 9V2.33333ZM17 2C16.8159 2 16.6667 2.14924 16.6667 2.33333V9C16.6667 9.1841 16.8159 9.33333 17 9.33333H23.6667C23.8508 9.33333 24 9.18409 24 9V2.33333C24 2.14924 23.8508 2 23.6667 2H17ZM14.6667 2.33333C14.6667 1.04467 15.7113 0 17 0H23.6667C24.9553 0 26 1.04467 26 2.33333V9C26 10.2887 24.9553 11.3333 23.6667 11.3333H17C15.7113 11.3333 14.6667 10.2887 14.6667 9V2.33333ZM2.33333 16.6667C2.14924 16.6667 2 16.8159 2 17V23.6667C2 23.8508 2.14924 24 2.33333 24H9C9.18409 24 9.33333 23.8508 9.33333 23.6667V17C9.33333 16.8159 9.1841 16.6667 9 16.6667H2.33333ZM0 17C0 15.7113 1.04467 14.6667 2.33333 14.6667H9C10.2887 14.6667 11.3333 15.7113 11.3333 17V23.6667C11.3333 24.9553 10.2887 26 9 26H2.33333C1.04467 26 0 24.9553 0 23.6667V17ZM17 16.6667C16.8159 16.6667 16.6667 16.8159 16.6667 17V23.6667C16.6667 23.8508 16.8159 24 17 24H23.6667C23.8508 24 24 23.8508 24 23.6667V17C24 16.8159 23.8508 16.6667 23.6667 16.6667H17ZM14.6667 17C14.6667 15.7113 15.7113 14.6667 17 14.6667H23.6667C24.9553 14.6667 26 15.7113 26 17V23.6667C26 24.9553 24.9553 26 23.6667 26H17C15.7113 26 14.6667 24.9553 14.6667 23.6667V17Z" fill="white"/>
</svg>
