<svg width="28" height="28" viewBox="0 0 28 28" fill="none" xmlns="http://www.w3.org/2000/svg">
<path d="M14 0C6.26875 0 0 6.26875 0 14C0 21.7313 6.26875 28 14 28C21.7313 28 28 21.7313 28 14C28 6.26875 21.7313 0 14 0ZM14 25.625C7.58125 25.625 2.375 20.4188 2.375 14C2.375 7.58125 7.58125 2.375 14 2.375C20.4188 2.375 25.625 7.58125 25.625 14C25.625 20.4188 20.4188 25.625 14 25.625Z" fill="white"/>
<path d="M12.5 8.5C12.5 8.89782 12.658 9.27936 12.9393 9.56066C13.2206 9.84196 13.6022 10 14 10C14.3978 10 14.7794 9.84196 15.0607 9.56066C15.342 9.27936 15.5 8.89782 15.5 8.5C15.5 8.10218 15.342 7.72064 15.0607 7.43934C14.7794 7.15804 14.3978 7 14 7C13.6022 7 13.2206 7.15804 12.9393 7.43934C12.658 7.72064 12.5 8.10218 12.5 8.5ZM14.75 12H13.25C13.1125 12 13 12.1125 13 12.25V20.75C13 20.8875 13.1125 21 13.25 21H14.75C14.8875 21 15 20.8875 15 20.75V12.25C15 12.1125 14.8875 12 14.75 12Z" fill="white"/>
</svg>
