<svg width="220" height="30" viewBox="0 0 220 30" fill="none" xmlns="http://www.w3.org/2000/svg">
<path d="M219.07 14.7397C219.07 15.2251 219.042 15.7384 218.986 16.2797H206.722C206.815 17.7917 207.329 18.9771 208.262 19.8357C209.214 20.6757 210.362 21.0957 211.706 21.0957C212.807 21.0957 213.722 20.8437 214.45 20.3397C215.197 19.8171 215.719 19.1264 216.018 18.2677H218.762C218.351 19.7424 217.53 20.9464 216.298 21.8797C215.066 22.7944 213.535 23.2517 211.706 23.2517C210.25 23.2517 208.943 22.9251 207.786 22.2717C206.647 21.6184 205.751 20.6944 205.098 19.4997C204.445 18.2864 204.118 16.8864 204.118 15.2997C204.118 13.7131 204.435 12.3224 205.07 11.1277C205.705 9.93306 206.591 9.0184 207.73 8.38373C208.887 7.7304 210.213 7.40373 211.706 7.40373C213.162 7.40373 214.45 7.72106 215.57 8.35573C216.69 8.9904 217.549 9.86773 218.146 10.9877C218.762 12.0891 219.07 13.3397 219.07 14.7397ZM216.438 14.2077C216.438 13.2371 216.223 12.4064 215.794 11.7157C215.365 11.0064 214.777 10.4744 214.03 10.1197C213.302 9.7464 212.49 9.55973 211.594 9.55973C210.306 9.55973 209.205 9.9704 208.29 10.7917C207.394 11.6131 206.881 12.7517 206.75 14.2077H216.438Z" fill="white"/>
<path d="M197.173 10.1477C197.621 9.2704 198.255 8.58906 199.077 8.10373C199.917 7.6184 200.934 7.37573 202.129 7.37573V10.0077H201.457C198.601 10.0077 197.173 11.5571 197.173 14.6557V22.9997H194.625V7.65573H197.173V10.1477Z" fill="white"/>
<path d="M183.407 23.2517C181.969 23.2517 180.663 22.9251 179.487 22.2717C178.329 21.6184 177.415 20.6944 176.743 19.4997C176.089 18.2864 175.763 16.8864 175.763 15.2997C175.763 13.7317 176.099 12.3504 176.771 11.1557C177.461 9.9424 178.395 9.0184 179.571 8.38373C180.747 7.7304 182.063 7.40373 183.519 7.40373C184.975 7.40373 186.291 7.7304 187.467 8.38373C188.643 9.0184 189.567 9.93306 190.239 11.1277C190.929 12.3224 191.275 13.7131 191.275 15.2997C191.275 16.8864 190.92 18.2864 190.211 19.4997C189.52 20.6944 188.577 21.6184 187.383 22.2717C186.188 22.9251 184.863 23.2517 183.407 23.2517ZM183.407 21.0117C184.321 21.0117 185.18 20.7971 185.983 20.3677C186.785 19.9384 187.429 19.2944 187.915 18.4357C188.419 17.5771 188.671 16.5317 188.671 15.2997C188.671 14.0677 188.428 13.0224 187.943 12.1637C187.457 11.3051 186.823 10.6704 186.039 10.2597C185.255 9.8304 184.405 9.61573 183.491 9.61573C182.557 9.61573 181.699 9.8304 180.915 10.2597C180.149 10.6704 179.533 11.3051 179.067 12.1637C178.6 13.0224 178.367 14.0677 178.367 15.2997C178.367 16.5504 178.591 17.6051 179.039 18.4637C179.505 19.3224 180.121 19.9664 180.887 20.3957C181.652 20.8064 182.492 21.0117 183.407 21.0117Z" fill="white"/>
<path d="M169.623 9.75573V18.7997C169.623 19.5464 169.782 20.0784 170.099 20.3957C170.417 20.6944 170.967 20.8437 171.751 20.8437H173.627V22.9997H171.331C169.913 22.9997 168.849 22.6731 168.139 22.0197C167.43 21.3664 167.075 20.2931 167.075 18.7997V9.75573H165.087V7.65573H167.075V3.79173H169.623V7.65573H173.627V9.75573H169.623Z" fill="white"/>
<path d="M156.27 23.1957C154.982 23.1957 153.824 22.9717 152.798 22.5237C151.79 22.0571 150.996 21.4224 150.418 20.6197C149.839 19.7984 149.54 18.8557 149.522 17.7917H152.238C152.331 18.7064 152.704 19.4811 153.358 20.1157C154.03 20.7317 155 21.0397 156.27 21.0397C157.483 21.0397 158.435 20.7411 159.126 20.1437C159.835 19.5277 160.19 18.7437 160.19 17.7917C160.19 17.0451 159.984 16.4384 159.574 15.9717C159.163 15.5051 158.65 15.1504 158.034 14.9077C157.418 14.6651 156.587 14.4037 155.542 14.1237C154.254 13.7877 153.218 13.4517 152.434 13.1157C151.668 12.7797 151.006 12.2571 150.446 11.5477C149.904 10.8197 149.634 9.84906 149.634 8.63573C149.634 7.57173 149.904 6.62906 150.446 5.80773C150.987 4.9864 151.743 4.35173 152.714 3.90373C153.703 3.45573 154.832 3.23173 156.102 3.23173C157.931 3.23173 159.424 3.68906 160.582 4.60373C161.758 5.5184 162.42 6.73173 162.57 8.24373H159.77C159.676 7.49706 159.284 6.84373 158.594 6.28373C157.903 5.70506 156.988 5.41573 155.85 5.41573C154.786 5.41573 153.918 5.69573 153.246 6.25573C152.574 6.79706 152.238 7.5624 152.238 8.55173C152.238 9.26106 152.434 9.83973 152.826 10.2877C153.236 10.7357 153.731 11.0811 154.31 11.3237C154.907 11.5477 155.738 11.8091 156.802 12.1077C158.09 12.4624 159.126 12.8171 159.91 13.1717C160.694 13.5077 161.366 14.0397 161.926 14.7677C162.486 15.4771 162.766 16.4477 162.766 17.6797C162.766 18.6317 162.514 19.5277 162.01 20.3677C161.506 21.2077 160.759 21.8891 159.77 22.4117C158.78 22.9344 157.614 23.1957 156.27 23.1957Z" fill="white"/>
<path d="M146.719 14.7397C146.719 15.2251 146.691 15.7384 146.635 16.2797H134.371C134.464 17.7917 134.977 18.9771 135.911 19.8357C136.863 20.6757 138.011 21.0957 139.355 21.0957C140.456 21.0957 141.371 20.8437 142.099 20.3397C142.845 19.8171 143.368 19.1264 143.667 18.2677H146.411C146 19.7424 145.179 20.9464 143.947 21.8797C142.715 22.7944 141.184 23.2517 139.355 23.2517C137.899 23.2517 136.592 22.9251 135.435 22.2717C134.296 21.6184 133.4 20.6944 132.747 19.4997C132.093 18.2864 131.767 16.8864 131.767 15.2997C131.767 13.7131 132.084 12.3224 132.719 11.1277C133.353 9.93306 134.24 9.0184 135.379 8.38373C136.536 7.7304 137.861 7.40373 139.355 7.40373C140.811 7.40373 142.099 7.72106 143.219 8.35573C144.339 8.9904 145.197 9.86773 145.795 10.9877C146.411 12.0891 146.719 13.3397 146.719 14.7397ZM144.087 14.2077C144.087 13.2371 143.872 12.4064 143.443 11.7157C143.013 11.0064 142.425 10.4744 141.679 10.1197C140.951 9.7464 140.139 9.55973 139.243 9.55973C137.955 9.55973 136.853 9.9704 135.939 10.7917C135.043 11.6131 134.529 12.7517 134.399 14.2077H144.087Z" fill="white"/>
<path d="M122.323 7.37573C123.518 7.37573 124.582 7.62773 125.515 8.13173C126.448 8.61706 127.186 9.3544 127.727 10.3437C128.268 11.3331 128.539 12.5371 128.539 13.9557V22.9997H126.019V14.3197C126.019 12.7891 125.636 11.6224 124.871 10.8197C124.124 9.9984 123.107 9.58773 121.819 9.58773C120.494 9.58773 119.439 10.0171 118.655 10.8757C117.871 11.7157 117.479 12.9384 117.479 14.5437V22.9997H114.959V14.3197C114.959 12.7891 114.576 11.6224 113.811 10.8197C113.064 9.9984 112.047 9.58773 110.759 9.58773C109.434 9.58773 108.379 10.0171 107.595 10.8757C106.811 11.7157 106.419 12.9384 106.419 14.5437V22.9997H103.871V7.65573H106.419V9.86773C106.923 9.06506 107.595 8.44906 108.435 8.01973C109.294 7.5904 110.236 7.37573 111.263 7.37573C112.551 7.37573 113.69 7.66506 114.679 8.24373C115.668 8.8224 116.406 9.67173 116.891 10.7917C117.32 9.70906 118.03 8.86906 119.019 8.27173C120.008 7.6744 121.11 7.37573 122.323 7.37573Z" fill="white"/>
<path d="M83.997 15.2717C83.997 13.7037 84.3143 12.3317 84.949 11.1557C85.5836 9.96106 86.4516 9.03706 87.553 8.38373C88.673 7.7304 89.9143 7.40373 91.277 7.40373C92.621 7.40373 93.7876 7.69306 94.777 8.27173C95.7663 8.8504 96.5036 9.5784 96.989 10.4557V7.65573H99.565V22.9997H96.989V20.1437C96.485 21.0397 95.729 21.7864 94.721 22.3837C93.7316 22.9624 92.5743 23.2517 91.249 23.2517C89.8863 23.2517 88.6543 22.9157 87.553 22.2437C86.4516 21.5717 85.5836 20.6291 84.949 19.4157C84.3143 18.2024 83.997 16.8211 83.997 15.2717ZM96.989 15.2997C96.989 14.1424 96.7556 13.1344 96.289 12.2757C95.8223 11.4171 95.1876 10.7637 94.385 10.3157C93.601 9.84906 92.733 9.61573 91.781 9.61573C90.829 9.61573 89.961 9.83973 89.177 10.2877C88.393 10.7357 87.7676 11.3891 87.301 12.2477C86.8343 13.1064 86.601 14.1144 86.601 15.2717C86.601 16.4477 86.8343 17.4744 87.301 18.3517C87.7676 19.2104 88.393 19.8731 89.177 20.3397C89.961 20.7877 90.829 21.0117 91.781 21.0117C92.733 21.0117 93.601 20.7877 94.385 20.3397C95.1876 19.8731 95.8223 19.2104 96.289 18.3517C96.7556 17.4744 96.989 16.4571 96.989 15.2997Z" fill="white"/>
<path d="M77.94 9.13973C77.3987 8.00106 76.6147 7.12373 75.588 6.50773C74.5613 5.87306 73.3667 5.55573 72.004 5.55573C70.6413 5.55573 69.4093 5.87306 68.308 6.50773C67.2253 7.12373 66.3667 8.01973 65.732 9.19573C65.116 10.3531 64.808 11.6971 64.808 13.2277C64.808 14.7584 65.116 16.1024 65.732 17.2597C66.3667 18.4171 67.2253 19.3131 68.308 19.9477C69.4093 20.5637 70.6413 20.8717 72.004 20.8717C73.908 20.8717 75.476 20.3024 76.708 19.1637C77.94 18.0251 78.6587 16.4851 78.864 14.5437H71.08V12.4717H81.58V14.4317C81.4307 16.0371 80.9267 17.5117 80.068 18.8557C79.2093 20.1811 78.08 21.2357 76.68 22.0197C75.28 22.7851 73.7213 23.1677 72.004 23.1677C70.1933 23.1677 68.5413 22.7477 67.048 21.9077C65.5547 21.0491 64.3693 19.8637 63.492 18.3517C62.6333 16.8397 62.204 15.1317 62.204 13.2277C62.204 11.3237 62.6333 9.61573 63.492 8.10373C64.3693 6.57306 65.5547 5.38773 67.048 4.54773C68.5413 3.68906 70.1933 3.25973 72.004 3.25973C74.076 3.25973 75.9053 3.77306 77.492 4.79973C79.0973 5.8264 80.264 7.27306 80.992 9.13973H77.94Z" fill="white"/>
<path fill-rule="evenodd" clip-rule="evenodd" d="M15.0201 -0.000269234C15.0062 -0.00056082 14.9923 -0.000561774 14.9783 -0.000269234H11.558C9.4774 -5.3048e-05 7.46103 0.721027 5.85216 2.04029C4.24332 3.35951 3.14125 5.1954 2.73343 7.23559V7.23559L0.0194249 20.8036C0.00650656 20.8682 0 20.9339 0 20.9997V23.5957C0.000178456 24.7277 0.335982 25.8344 0.964955 26.7755C1.59393 27.7166 2.48783 28.4502 3.53364 28.8833C4.57946 29.3165 5.73022 29.4298 6.84045 29.2091C7.95068 28.9883 8.97052 28.4433 9.77103 27.6429L15.4142 21.9997H26.5859L32.229 27.6409V27.6409C33.0295 28.4412 34.0493 28.9863 35.1596 29.2071C36.2698 29.4278 37.4205 29.3145 38.4664 28.8813C39.5122 28.4482 40.4061 27.7146 41.035 26.7735C41.664 25.8324 41.9998 24.7259 42 23.5939V20.9997C42 20.9339 41.9935 20.8682 41.9806 20.8036L39.2666 7.23573V7.23573C38.8588 5.19554 37.7567 3.35951 36.1478 2.04029C34.539 0.721028 32.5227 -5.3048e-05 30.4421 -0.000269234H27.0217C27.0077 -0.000561774 26.9938 -0.00056082 26.9799 -0.000269234H15.0201ZM25.382 1.99973H16.618L17.618 3.99973H24.382L25.382 1.99973ZM27.618 1.99973L25.8944 5.44694C25.725 5.78573 25.3788 5.99973 25 5.99973H17C16.6212 5.99973 16.275 5.78573 16.1056 5.44694L14.382 1.99973H11.5581V1.99973C9.93989 1.99992 8.37162 2.56076 7.12031 3.58683C5.86896 4.61292 5.01178 6.04087 4.6946 7.62773L2 21.0988V23.5956V23.5956C2.00015 24.332 2.21862 25.052 2.62779 25.6642C3.037 26.2765 3.61857 26.7537 4.29897 27.0356C4.97937 27.3174 5.72805 27.3911 6.45036 27.2475C7.17263 27.1038 7.8361 26.7493 8.35689 26.2286V26.2286L14.2929 20.2926C14.4804 20.1051 14.7348 19.9997 15 19.9997H27C27.2652 19.9997 27.5195 20.105 27.707 20.2925L33.643 26.2265C34.1638 26.7472 34.8273 27.1018 35.5496 27.2455C36.272 27.3891 37.0206 27.3154 37.701 27.0336C38.3814 26.7517 38.963 26.2745 39.3722 25.6622C39.7814 25.05 39.9999 24.3301 40 23.5937V23.5937V21.0988L37.3054 7.62788C36.9882 6.04102 36.131 4.61292 34.8797 3.58683C33.6284 2.56076 32.0602 1.99992 30.442 1.99973M30.442 1.99973H27.618Z" fill="white"/>
</svg>
