<svg width="28" height="20" viewBox="0 0 28 20" fill="none" xmlns="http://www.w3.org/2000/svg">
<path d="M26 0.666504H2C1.64638 0.666504 1.30724 0.80698 1.05719 1.05703C0.807144 1.30708 0.666668 1.64622 0.666668 1.99984V7.33317H1.85733C3.18533 7.33317 4.41733 8.24117 4.63067 9.55184C4.69566 9.93455 4.67635 10.3268 4.57409 10.7013C4.47183 11.0758 4.28908 11.4235 4.03859 11.72C3.78811 12.0166 3.47592 12.2549 3.12383 12.4184C2.77173 12.5819 2.3882 12.6666 2 12.6665H0.666668V17.9998C0.666668 18.3535 0.807144 18.6926 1.05719 18.9426C1.30724 19.1927 1.64638 19.3332 2 19.3332H26C26.3536 19.3332 26.6928 19.1927 26.9428 18.9426C27.1929 18.6926 27.3333 18.3535 27.3333 17.9998V12.6665H26C25.6118 12.6666 25.2283 12.5819 24.8762 12.4184C24.5241 12.2549 24.2119 12.0166 23.9614 11.72C23.7109 11.4235 23.5282 11.0758 23.4259 10.7013C23.3237 10.3268 23.3043 9.93455 23.3693 9.55184C23.5827 8.24117 24.8147 7.33317 26.1427 7.33317H27.3333V1.99984C27.3333 1.64622 27.1929 1.30708 26.9428 1.05703C26.6928 0.80698 26.3536 0.666504 26 0.666504ZM10 5.99984C10.3536 5.99984 10.6928 6.14031 10.9428 6.39036C11.1929 6.64041 11.3333 6.97955 11.3333 7.33317C11.3333 7.68679 11.1929 8.02593 10.9428 8.27598C10.6928 8.52603 10.3536 8.6665 10 8.6665C9.64638 8.6665 9.30724 8.52603 9.05719 8.27598C8.80714 8.02593 8.66667 7.68679 8.66667 7.33317C8.66667 6.97955 8.80714 6.64041 9.05719 6.39036C9.30724 6.14031 9.64638 5.99984 10 5.99984ZM8.93333 14.5332L16.9333 3.8665L19.0667 5.4665L11.0667 16.1332L8.93333 14.5332ZM18 13.9998C17.6464 13.9998 17.3072 13.8594 17.0572 13.6093C16.8071 13.3593 16.6667 13.0201 16.6667 12.6665C16.6667 12.3129 16.8071 11.9737 17.0572 11.7237C17.3072 11.4736 17.6464 11.3332 18 11.3332C18.3536 11.3332 18.6928 11.4736 18.9428 11.7237C19.1929 11.9737 19.3333 12.3129 19.3333 12.6665C19.3333 13.0201 19.1929 13.3593 18.9428 13.6093C18.6928 13.8594 18.3536 13.9998 18 13.9998Z" fill="white"/>
</svg>
