<svg width="36" height="36" viewBox="0 0 36 36" fill="none" xmlns="http://www.w3.org/2000/svg">
<path d="M12.748 6.816C11.008 6.883 9.435 7.504 8.594 8.346C8.50109 8.43884 8.3908 8.51248 8.26943 8.5627C8.14807 8.61292 8.01799 8.63875 7.88665 8.6387C7.7553 8.63866 7.62524 8.61274 7.50391 8.56243C7.38258 8.51212 7.27234 8.43841 7.1795 8.3455C7.08666 8.25259 7.01302 8.1423 6.9628 8.02093C6.91258 7.89957 6.88675 7.76949 6.8868 7.63815C6.88684 7.5068 6.91276 7.37674 6.96307 7.25541C7.01338 7.13408 7.08709 7.02384 7.18 6.931C8.477 5.634 10.589 4.898 12.67 4.817C14.765 4.736 17.052 5.309 18.654 6.911C18.8415 7.09864 18.9468 7.35308 18.9467 7.61835C18.9466 7.88362 18.8411 8.13799 18.6535 8.3255C18.4659 8.51301 18.2114 8.6183 17.9461 8.6182C17.6809 8.61811 17.4265 8.51264 17.239 8.325C16.149 7.234 14.475 6.748 12.748 6.815V6.816Z" fill="white"/>
<path fill-rule="evenodd" clip-rule="evenodd" d="M21.384 22.936C19.0409 24.9188 16.0695 26.0047 13 26C5.82 26 0 20.18 0 13C0 5.82 5.82 0 13 0C20.18 0 26 5.82 26 13C26 16.195 24.848 19.12 22.936 21.384L25.144 21L35.428 31.284C36.191 32.047 36.191 33.284 35.428 34.046L34.046 35.428C33.283 36.191 32.046 36.191 31.284 35.428L21 25.144L21.384 22.936ZM24 13C24 19.075 19.075 24 13 24C6.925 24 2 19.075 2 13C2 6.925 6.925 2 13 2C19.075 2 24 6.925 24 13ZM31.249 29.933L24.464 23.148L23.344 23.343L23.148 24.464L29.953 31.269L31.249 29.933ZM31.367 32.683L32.665 33.981L33.981 32.665L32.663 31.347L31.367 32.683Z" fill="white"/>
</svg>
