<svg width="19" height="19" viewBox="0 0 19 19" fill="none" xmlns="http://www.w3.org/2000/svg">
<path d="M10.2066 13.1439C9.81623 13.5338 9.18377 13.5338 8.79335 13.1439L4.75028 9.10608C4.48409 8.84024 4.48395 8.4089 4.74996 8.14289V8.14289C5.01601 7.87685 5.44739 7.87702 5.71322 8.14327L8.79233 11.2273C9.18298 11.6186 9.81702 11.6186 10.2077 11.2273L13.2868 8.14327C13.5526 7.87702 13.984 7.87685 14.25 8.14289V8.14289C14.516 8.40891 14.5159 8.84024 14.2497 9.10608L10.2066 13.1439ZM18 0C18.5523 0 19 0.447715 19 1V18C19 18.5523 18.5523 19 18 19H1C0.447715 19 0 18.5523 0 18V1C0 0.447715 0.447715 0 1 0H18ZM17.6429 2.35714C17.6429 1.80486 17.1951 1.35714 16.6429 1.35714H2.35714C1.80486 1.35714 1.35714 1.80486 1.35714 2.35714V16.6429C1.35714 17.1951 1.80486 17.6429 2.35714 17.6429H16.6429C17.1951 17.6429 17.6429 17.1951 17.6429 16.6429V2.35714Z" fill="#11101D"/>
</svg>
